<svg xmlns="http://www.w3.org/2000/svg" viewBox="0 0 1280 720" width="1280" height="720">
  <rect width="1280" height="720" fill="#FFFFFF"></rect>
  <g transform="translate(640,250) rotate(45)">
    <rect x="-75" y="-75" width="150" height="150" rx="33" ry="75" fill="#E5342B"></rect>
    <rect x="-8" y="-8" width="58" height="58" rx="12" ry="29" fill="#FFFFFF"></rect>
  </g>
  <g transform="translate(352.7,470)">
    <path fill="#E5342B" d="M37.128-22.776L37.128-22.776L24.752-22.776L20.696 0L1.976 0L15.184-74.880L46.904-74.880Q58.656-74.880 63.648-69.472L63.648-69.472Q67.288-65.312 67.288-58.864L67.288-58.864Q67.288-56.680 66.872-54.288L66.872-54.288L64.792-42.536Q63.232-33.904 55.640-28.340Q48.048-22.776 37.128-22.776ZM40.352-58.656L40.352-58.656L30.992-58.656L27.560-39L36.816-39Q45.344-39 46.696-46.592L46.696-46.592L47.424-50.856Q47.632-51.792 47.632-53.352Q47.632-54.912 46.072-56.784Q44.512-58.656 40.352-58.656ZM119.080-39.416L119.080-39.416Q119.080-35.880 117.884-32.552Q116.688-29.224 115.544-27.664L115.544-27.664L114.400-26.208L98.696-26.208Q101.296-28.600 101.296-32.136L101.296-32.136Q101.296-34.008 100.100-35.204Q98.904-36.400 96.824-36.400L96.824-36.400Q93.288-36.400 90.688-32.864L90.688-32.864L84.864 0L67.184 0L76.024-50.024L92.456-50.024L91.208-43.056Q97.136-51.480 105.560-51.480L105.560-51.480Q112.320-51.480 115.700-48.256Q119.080-45.032 119.080-39.416ZM143.104 1.456L143.104 1.456Q121.472 1.456 121.472-13.520L121.472-13.520Q121.472-15.600 121.888-17.992L121.888-17.992L124.072-30.888Q125.840-40.872 133.276-46.228Q140.712-51.584 152.984-51.584L152.984-51.584Q173.888-51.584 173.888-35.776L173.888-35.776Q173.888-33.488 173.472-30.784L173.472-30.784L172.224-23.400L140.504-23.400L140.088-21.008Q139.880-19.760 139.880-18.720L139.880-18.720Q139.880-13.000 146.640-13.000L146.640-13.000Q149.136-13.000 150.904-14.560Q152.672-16.120 152.984-18.200L152.984-18.200L170.248-17.992Q166.816 1.456 143.104 1.456ZM141.544-29.744L155.584-29.744Q156-31.512 156-33.020Q156-34.528 154.648-36.088Q153.296-37.648 150.332-37.648Q147.368-37.648 144.924-35.672Q142.480-33.696 141.544-29.744L141.544-29.744Z"></path>
    <path fill="#22262B" d="M214.344-22.776L214.344-22.776L201.968-22.776L197.912 0L179.192 0L192.400-74.880L224.120-74.880Q235.872-74.880 240.864-69.472L240.864-69.472Q244.504-65.312 244.504-58.864L244.504-58.864Q244.504-56.680 244.088-54.288L244.088-54.288L242.008-42.536Q240.448-33.904 232.856-28.340Q225.264-22.776 214.344-22.776ZM217.568-58.656L217.568-58.656L208.208-58.656L204.776-39L214.032-39Q222.560-39 223.912-46.592L223.912-46.592L224.640-50.856Q224.848-51.792 224.848-53.352Q224.848-54.912 223.288-56.784Q221.728-58.656 217.568-58.656ZM265.200-16.016L265.200-16.016Q265.200-13.312 267.956-13.312Q270.712-13.312 272.584-14.352L272.584-14.352L272.064-2.600Q267.072 1.456 260.832 1.456L260.832 1.456Q251.368 1.456 248.560-2.912L248.560-2.912Q246.792-5.720 246.792-9.048Q246.792-12.376 247.208-14.872L247.208-14.872L258.544-78.936L276.224-78.936L265.304-17.264Q265.200-16.640 265.200-16.016ZM327.808-16.016L327.808-16.016Q327.808-13.312 330.564-13.312Q333.320-13.312 335.192-14.352L335.192-14.352L334.672-2.600Q329.680 1.456 323.440 1.456L323.440 1.456Q312 1.456 310.752-6.864L310.752-6.864Q305.552 1.456 295.464 1.456L295.464 1.456Q278.408 1.456 278.408-13.208L278.408-13.208Q278.408-15.704 278.928-18.720L278.928-18.720L281.112-30.888Q282.776-40.248 288.756-45.812Q294.736-51.376 304.356-51.376Q313.976-51.376 317.408-46.904L317.408-46.904L317.928-50.024L333.736-50.024L327.912-17.264Q327.808-16.640 327.808-16.016ZM298.376-28.808L297.024-21.008Q296.816-20.072 296.816-18.408Q296.816-16.744 298.376-15.132Q299.936-13.520 303.628-13.520Q307.320-13.520 310.024-16.432L310.024-16.432L313.144-33.904Q312-36.504 307.736-36.504L307.736-36.504Q299.728-36.504 298.376-28.808L298.376-28.808ZM375.128-31.928L375.128-31.928Q375.128-36.400 370.812-36.400Q366.496-36.400 363.688-33.176L363.688-33.176L357.864 0L340.184 0L349.024-50.024L365.456-50.024L364.312-43.888Q370.448-51.480 379.808-51.480Q389.168-51.480 391.976-46.904L391.976-46.904Q393.744-43.992 393.744-40.248Q393.744-36.504 393.224-33.280L393.224-33.280L390.416-17.264Q390.312-16.640 390.312-16.120L390.312-16.120Q390.312-13.312 393.432-13.312L393.432-13.312Q395.824-13.312 397.696-14.352L397.696-14.352L397.176-2.600Q392.288 1.456 386.048 1.456L386.048 1.456Q371.904 1.456 371.904-10.400L371.904-10.400Q371.904-12.480 372.320-14.872L372.320-14.872L374.816-28.704Q375.128-30.576 375.128-31.928ZM437.320-31.928L437.320-31.928Q437.320-36.400 433.004-36.400Q428.688-36.400 425.880-33.176L425.880-33.176L420.056 0L402.376 0L411.216-50.024L427.648-50.024L426.504-43.888Q432.640-51.480 442.000-51.480Q451.360-51.480 454.168-46.904L454.168-46.904Q455.936-43.992 455.936-40.248Q455.936-36.504 455.416-33.280L455.416-33.280L452.608-17.264Q452.504-16.640 452.504-16.120L452.504-16.120Q452.504-13.312 455.624-13.312L455.624-13.312Q458.016-13.312 459.888-14.352L459.888-14.352L459.368-2.600Q454.480 1.456 448.240 1.456L448.240 1.456Q434.096 1.456 434.096-10.400L434.096-10.400Q434.096-12.480 434.512-14.872L434.512-14.872L437.008-28.704Q437.320-30.576 437.320-31.928ZM487.032 1.456L487.032 1.456Q465.400 1.456 465.400-13.520L465.400-13.520Q465.400-15.600 465.816-17.992L465.816-17.992L468.000-30.888Q469.768-40.872 477.204-46.228Q484.640-51.584 496.912-51.584L496.912-51.584Q517.816-51.584 517.816-35.776L517.816-35.776Q517.816-33.488 517.400-30.784L517.400-30.784L516.152-23.400L484.432-23.400L484.016-21.008Q483.808-19.760 483.808-18.720L483.808-18.720Q483.808-13.000 490.568-13.000L490.568-13.000Q493.064-13.000 494.832-14.560Q496.600-16.120 496.912-18.200L496.912-18.200L514.176-17.992Q510.744 1.456 487.032 1.456ZM485.472-29.744L499.512-29.744Q499.928-31.512 499.928-33.020Q499.928-34.528 498.576-36.088Q497.224-37.648 494.260-37.648Q491.296-37.648 488.852-35.672Q486.408-33.696 485.472-29.744L485.472-29.744ZM573.872-39.416L573.872-39.416Q573.872-35.880 572.676-32.552Q571.480-29.224 570.336-27.664L570.336-27.664L569.192-26.208L553.488-26.208Q556.088-28.600 556.088-32.136L556.088-32.136Q556.088-34.008 554.892-35.204Q553.696-36.400 551.616-36.400L551.616-36.400Q548.080-36.400 545.480-32.864L545.480-32.864L539.656 0L521.976 0L530.816-50.024L547.248-50.024L546-43.056Q551.928-51.480 560.352-51.480L560.352-51.480Q567.112-51.480 570.492-48.256Q573.872-45.032 573.872-39.416Z"></path>
  </g>
  <g transform="translate(499.56,516)">
    <path fill="#5C636B" d="M3.484 0L3.016 0Q2.756 0 2.600-0.156Q2.444-0.312 2.444-0.572L2.444-0.572L2.444-17.602Q2.444-17.888 2.600-18.044Q2.756-18.200 3.016-18.200L3.016-18.200L9.074-18.200Q11.804-18.200 13.429-16.900Q15.054-15.600 15.054-12.948L15.054-12.948Q15.054-10.868 14.014-9.620Q12.974-8.372 11.128-7.930L11.128-7.930L15.314-0.806Q15.392-0.650 15.392-0.520L15.392-0.520Q15.392-0.312 15.236-0.156Q15.080 0 14.872 0L14.872 0L14.560 0Q14.144 0 13.936-0.221Q13.728-0.442 13.572-0.702L13.572-0.702L9.438-7.696L4.082-7.696L4.082-0.572Q4.082-0.312 3.926-0.156Q3.770 0 3.484 0L3.484 0ZM4.082-16.640L4.082-9.256L8.944-9.256Q11.206-9.256 12.311-10.179Q13.416-11.102 13.416-12.948L13.416-12.948Q13.416-14.794 12.311-15.717Q11.206-16.640 8.944-16.640L8.944-16.640L4.082-16.640ZM23.764 0.260L23.764 0.260Q21.242 0.260 19.760-1.391Q18.278-3.042 18.070-5.720L18.070-5.720Q18.044-6.110 18.044-6.760Q18.044-7.410 18.070-7.800L18.070-7.800Q18.200-9.568 18.902-10.920Q19.604-12.272 20.839-13.026Q22.074-13.780 23.764-13.780L23.764-13.780Q25.584-13.780 26.858-12.974Q28.132-12.168 28.821-10.660Q29.510-9.152 29.510-7.072L29.510-7.072L29.510-6.682Q29.510-6.422 29.341-6.266Q29.172-6.110 28.912-6.110L28.912-6.110L19.656-6.110Q19.656-6.110 19.656-6.006Q19.656-5.902 19.656-5.850L19.656-5.850Q19.708-4.680 20.202-3.627Q20.696-2.574 21.606-1.911Q22.516-1.248 23.764-1.248L23.764-1.248Q24.882-1.248 25.623-1.586Q26.364-1.924 26.806-2.327Q27.248-2.730 27.378-2.938L27.378-2.938Q27.612-3.276 27.742-3.341Q27.872-3.406 28.158-3.406L28.158-3.406L28.574-3.406Q28.808-3.406 28.977-3.263Q29.146-3.120 29.120-2.886L29.120-2.886Q29.094-2.522 28.717-1.989Q28.340-1.456 27.651-0.936Q26.962-0.416 25.974-0.078Q24.986 0.260 23.764 0.260ZM19.656-7.670L19.656-7.566L27.924-7.566L27.924-7.670Q27.924-8.970 27.430-10.010Q26.936-11.050 26-11.661Q25.064-12.272 23.764-12.272L23.764-12.272Q22.464-12.272 21.541-11.661Q20.618-11.050 20.137-10.010Q19.656-8.970 19.656-7.670L19.656-7.670ZM36.582 0.260L36.582 0.260Q35.334 0.260 34.281-0.260Q33.228-0.780 32.578-1.651Q31.928-2.522 31.928-3.614L31.928-3.614Q31.928-5.382 33.358-6.448Q34.788-7.514 37.076-7.826L37.076-7.826L41.184-8.398L41.184-9.308Q41.184-10.686 40.339-11.479Q39.494-12.272 37.648-12.272L37.648-12.272Q36.296-12.272 35.464-11.739Q34.632-11.206 34.320-10.348L34.320-10.348Q34.190-9.958 33.826-9.958L33.826-9.958L33.410-9.958Q33.098-9.958 32.968-10.127Q32.838-10.296 32.838-10.530L32.838-10.530Q32.838-10.894 33.111-11.440Q33.384-11.986 33.956-12.519Q34.528-13.052 35.438-13.416Q36.348-13.780 37.648-13.780L37.648-13.780Q39.182-13.780 40.183-13.364Q41.184-12.948 41.743-12.285Q42.302-11.622 42.536-10.816Q42.770-10.010 42.770-9.230L42.770-9.230L42.770-0.572Q42.770-0.312 42.614-0.156Q42.458 0 42.198 0L42.198 0L41.756 0Q41.496 0 41.340-0.156Q41.184-0.312 41.184-0.572L41.184-0.572L41.184-1.794Q40.872-1.326 40.300-0.858Q39.728-0.390 38.831-0.065Q37.934 0.260 36.582 0.260ZM36.842-1.248L36.842-1.248Q38.038-1.248 39.026-1.768Q40.014-2.288 40.599-3.367Q41.184-4.446 41.184-6.084L41.184-6.084L41.184-6.968L37.830-6.500Q35.698-6.214 34.606-5.512Q33.514-4.810 33.514-3.744L33.514-3.744Q33.514-2.886 34.008-2.340Q34.502-1.794 35.269-1.521Q36.036-1.248 36.842-1.248ZM51.766 0.260L51.766 0.260Q50.258 0.260 49.205-0.286Q48.152-0.832 47.502-1.742Q46.852-2.652 46.553-3.770Q46.254-4.888 46.202-6.032L46.202-6.032Q46.176-6.422 46.176-6.760Q46.176-7.098 46.202-7.488L46.202-7.488Q46.254-8.632 46.553-9.750Q46.852-10.868 47.502-11.778Q48.152-12.688 49.205-13.234Q50.258-13.780 51.766-13.780L51.766-13.780Q53.378-13.780 54.431-13.182Q55.484-12.584 56.134-11.726L56.134-11.726L56.134-17.888Q56.134-18.148 56.290-18.304Q56.446-18.460 56.706-18.460L56.706-18.460L57.148-18.460Q57.408-18.460 57.564-18.304Q57.720-18.148 57.720-17.888L57.720-17.888L57.720-0.572Q57.720-0.312 57.564-0.156Q57.408 0 57.148 0L57.148 0L56.706 0Q56.446 0 56.290-0.156Q56.134-0.312 56.134-0.572L56.134-0.572L56.134-1.794Q55.484-0.910 54.431-0.325Q53.378 0.260 51.766 0.260ZM51.922-1.248L51.922-1.248Q53.404-1.248 54.314-1.950Q55.224-2.652 55.666-3.705Q56.108-4.758 56.134-5.824L56.134-5.824Q56.160-6.214 56.160-6.838Q56.160-7.462 56.134-7.852L56.134-7.852Q56.108-8.892 55.653-9.906Q55.198-10.920 54.288-11.596Q53.378-12.272 51.922-12.272L51.922-12.272Q50.414-12.272 49.517-11.596Q48.620-10.920 48.230-9.828Q47.840-8.736 47.788-7.488L47.788-7.488Q47.762-6.760 47.788-6.032L47.788-6.032Q47.840-4.784 48.230-3.692Q48.620-2.600 49.517-1.924Q50.414-1.248 51.922-1.248ZM64.766 4.940L64.246 4.940Q64.038 4.940 63.882 4.784Q63.726 4.628 63.726 4.420L63.726 4.420Q63.726 4.316 63.765 4.199Q63.804 4.082 63.882 3.900L63.882 3.900L65.884-0.780L60.918-12.480Q60.762-12.870 60.762-13.000L60.762-13.000Q60.762-13.208 60.918-13.364Q61.074-13.520 61.282-13.520L61.282-13.520L61.828-13.520Q62.088-13.520 62.231-13.403Q62.374-13.286 62.426-13.130L62.426-13.130L66.794-2.834L71.266-13.130Q71.344-13.286 71.474-13.403Q71.604-13.520 71.864-13.520L71.864-13.520L72.384-13.520Q72.592-13.520 72.748-13.364Q72.904-13.208 72.904-13.000L72.904-13.000Q72.904-12.870 72.748-12.480L72.748-12.480L65.364 4.550Q65.286 4.706 65.156 4.823Q65.026 4.940 64.766 4.940L64.766 4.940ZM88.478 0.260L88.478 0.260Q86.866 0.260 85.813-0.325Q84.760-0.910 84.110-1.794L84.110-1.794L84.110-0.572Q84.110-0.312 83.954-0.156Q83.798 0 83.538 0L83.538 0L83.096 0Q82.836 0 82.680-0.156Q82.524-0.312 82.524-0.572L82.524-0.572L82.524-17.888Q82.524-18.148 82.680-18.304Q82.836-18.460 83.096-18.460L83.096-18.460L83.538-18.460Q83.798-18.460 83.954-18.304Q84.110-18.148 84.110-17.888L84.110-17.888L84.110-11.726Q84.760-12.584 85.813-13.182Q86.866-13.780 88.478-13.780L88.478-13.780Q90.012-13.780 91.052-13.234Q92.092-12.688 92.742-11.778Q93.392-10.868 93.704-9.750Q94.016-8.632 94.042-7.488L94.042-7.488Q94.068-7.098 94.068-6.760Q94.068-6.422 94.042-6.032L94.042-6.032Q94.016-4.888 93.704-3.770Q93.392-2.652 92.742-1.742Q92.092-0.832 91.052-0.286Q90.012 0.260 88.478 0.260ZM88.322-1.248L88.322-1.248Q89.856-1.248 90.740-1.924Q91.624-2.600 92.014-3.692Q92.404-4.784 92.456-6.032L92.456-6.032Q92.482-6.760 92.456-7.488L92.456-7.488Q92.404-8.736 92.014-9.828Q91.624-10.920 90.740-11.596Q89.856-12.272 88.322-12.272L88.322-12.272Q86.892-12.272 85.969-11.596Q85.046-10.920 84.591-9.906Q84.136-8.892 84.110-7.852L84.110-7.852Q84.084-7.462 84.084-6.838Q84.084-6.214 84.110-5.824L84.110-5.824Q84.162-4.758 84.591-3.705Q85.020-2.652 85.930-1.950Q86.840-1.248 88.322-1.248ZM102.596 0.260L102.596 0.260Q100.074 0.260 98.592-1.391Q97.110-3.042 96.902-5.720L96.902-5.720Q96.876-6.110 96.876-6.760Q96.876-7.410 96.902-7.800L96.902-7.800Q97.032-9.568 97.734-10.920Q98.436-12.272 99.671-13.026Q100.906-13.780 102.596-13.780L102.596-13.780Q104.416-13.780 105.690-12.974Q106.964-12.168 107.653-10.660Q108.342-9.152 108.342-7.072L108.342-7.072L108.342-6.682Q108.342-6.422 108.173-6.266Q108.004-6.110 107.744-6.110L107.744-6.110L98.488-6.110Q98.488-6.110 98.488-6.006Q98.488-5.902 98.488-5.850L98.488-5.850Q98.540-4.680 99.034-3.627Q99.528-2.574 100.438-1.911Q101.348-1.248 102.596-1.248L102.596-1.248Q103.714-1.248 104.455-1.586Q105.196-1.924 105.638-2.327Q106.080-2.730 106.210-2.938L106.210-2.938Q106.444-3.276 106.574-3.341Q106.704-3.406 106.990-3.406L106.990-3.406L107.406-3.406Q107.640-3.406 107.809-3.263Q107.978-3.120 107.952-2.886L107.952-2.886Q107.926-2.522 107.549-1.989Q107.172-1.456 106.483-0.936Q105.794-0.416 104.806-0.078Q103.818 0.260 102.596 0.260ZM98.488-7.670L98.488-7.566L106.756-7.566L106.756-7.670Q106.756-8.970 106.262-10.010Q105.768-11.050 104.832-11.661Q103.896-12.272 102.596-12.272L102.596-12.272Q101.296-12.272 100.373-11.661Q99.450-11.050 98.969-10.010Q98.488-8.970 98.488-7.670L98.488-7.670ZM114.062 0L113.620 0Q113.360 0 113.204-0.156Q113.048-0.312 113.048-0.572L113.048-0.572L113.048-12.012L110.734-12.012Q110.474-12.012 110.318-12.168Q110.162-12.324 110.162-12.584L110.162-12.584L110.162-12.948Q110.162-13.208 110.318-13.364Q110.474-13.520 110.734-13.520L110.734-13.520L113.048-13.520L113.048-15.002Q113.048-16.172 113.373-17.134Q113.698-18.096 114.543-18.668Q115.388-19.240 116.974-19.240L116.974-19.240L118.326-19.240Q118.586-19.240 118.742-19.084Q118.898-18.928 118.898-18.668L118.898-18.668L118.898-18.304Q118.898-18.044 118.742-17.888Q118.586-17.732 118.326-17.732L118.326-17.732L116.974-17.732Q115.596-17.732 115.115-16.991Q114.634-16.250 114.634-14.872L114.634-14.872L114.634-13.520L118.066-13.520Q118.326-13.520 118.482-13.364Q118.638-13.208 118.638-12.948L118.638-12.948L118.638-12.584Q118.638-12.324 118.482-12.168Q118.326-12.012 118.066-12.012L118.066-12.012L114.634-12.012L114.634-0.572Q114.634-0.312 114.478-0.156Q114.322 0 114.062 0L114.062 0ZM126.282 0.260L126.282 0.260Q124.410 0.260 123.149-0.520Q121.888-1.300 121.225-2.652Q120.562-4.004 120.510-5.668L120.510-5.668Q120.484-6.058 120.484-6.760Q120.484-7.462 120.510-7.852L120.510-7.852Q120.562-9.542 121.225-10.881Q121.888-12.220 123.149-13.000Q124.410-13.780 126.282-13.780L126.282-13.780Q128.154-13.780 129.415-13.000Q130.676-12.220 131.339-10.881Q132.002-9.542 132.054-7.852L132.054-7.852Q132.080-7.462 132.080-6.760Q132.080-6.058 132.054-5.668L132.054-5.668Q132.002-4.004 131.339-2.652Q130.676-1.300 129.415-0.520Q128.154 0.260 126.282 0.260ZM126.282-1.248L126.282-1.248Q128.102-1.248 129.246-2.418Q130.390-3.588 130.468-5.798L130.468-5.798Q130.494-6.188 130.494-6.760Q130.494-7.332 130.468-7.722L130.468-7.722Q130.390-9.958 129.246-11.115Q128.102-12.272 126.282-12.272L126.282-12.272Q124.462-12.272 123.318-11.115Q122.174-9.958 122.096-7.722L122.096-7.722Q122.070-7.332 122.070-6.760Q122.070-6.188 122.096-5.798L122.096-5.798Q122.174-3.588 123.318-2.418Q124.462-1.248 126.282-1.248ZM136.630 0L136.214 0Q135.954 0 135.798-0.156Q135.642-0.312 135.642-0.572L135.642-0.572L135.642-12.922Q135.642-13.182 135.798-13.351Q135.954-13.520 136.214-13.520L136.214-13.520L136.630-13.520Q136.890-13.520 137.059-13.351Q137.228-13.182 137.228-12.922L137.228-12.922L137.228-11.726Q137.696-12.636 138.580-13.078Q139.464-13.520 140.764-13.520L140.764-13.520L141.726-13.520Q141.986-13.520 142.142-13.364Q142.298-13.208 142.298-12.948L142.298-12.948L142.298-12.584Q142.298-12.324 142.142-12.168Q141.986-12.012 141.726-12.012L141.726-12.012L140.608-12.012Q139.048-12.012 138.138-11.102Q137.228-10.192 137.228-8.632L137.228-8.632L137.228-0.572Q137.228-0.312 137.059-0.156Q136.890 0 136.630 0L136.630 0ZM149.708 0.260L149.708 0.260Q147.186 0.260 145.704-1.391Q144.222-3.042 144.014-5.720L144.014-5.720Q143.988-6.110 143.988-6.760Q143.988-7.410 144.014-7.800L144.014-7.800Q144.144-9.568 144.846-10.920Q145.548-12.272 146.783-13.026Q148.018-13.780 149.708-13.780L149.708-13.780Q151.528-13.780 152.802-12.974Q154.076-12.168 154.765-10.660Q155.454-9.152 155.454-7.072L155.454-7.072L155.454-6.682Q155.454-6.422 155.285-6.266Q155.116-6.110 154.856-6.110L154.856-6.110L145.600-6.110Q145.600-6.110 145.600-6.006Q145.600-5.902 145.600-5.850L145.600-5.850Q145.652-4.680 146.146-3.627Q146.640-2.574 147.550-1.911Q148.460-1.248 149.708-1.248L149.708-1.248Q150.826-1.248 151.567-1.586Q152.308-1.924 152.750-2.327Q153.192-2.730 153.322-2.938L153.322-2.938Q153.556-3.276 153.686-3.341Q153.816-3.406 154.102-3.406L154.102-3.406L154.518-3.406Q154.752-3.406 154.921-3.263Q155.090-3.120 155.064-2.886L155.064-2.886Q155.038-2.522 154.661-1.989Q154.284-1.456 153.595-0.936Q152.906-0.416 151.918-0.078Q150.930 0.260 149.708 0.260ZM145.600-7.670L145.600-7.566L153.868-7.566L153.868-7.670Q153.868-8.970 153.374-10.010Q152.880-11.050 151.944-11.661Q151.008-12.272 149.708-12.272L149.708-12.272Q148.408-12.272 147.485-11.661Q146.562-11.050 146.081-10.010Q145.600-8.970 145.600-7.670L145.600-7.670ZM171.678 0L170.144 0Q168.792 0 168.012-0.572Q167.232-1.144 166.920-2.132Q166.608-3.120 166.608-4.342L166.608-4.342L166.608-12.012L164.580-12.012Q164.320-12.012 164.164-12.168Q164.008-12.324 164.008-12.584L164.008-12.584L164.008-12.948Q164.008-13.208 164.164-13.364Q164.320-13.520 164.580-13.520L164.580-13.520L166.608-13.520L166.608-17.888Q166.608-18.148 166.764-18.304Q166.920-18.460 167.180-18.460L167.180-18.460L167.622-18.460Q167.882-18.460 168.038-18.304Q168.194-18.148 168.194-17.888L168.194-17.888L168.194-13.520L171.418-13.520Q171.678-13.520 171.834-13.364Q171.990-13.208 171.990-12.948L171.990-12.948L171.990-12.584Q171.990-12.324 171.834-12.168Q171.678-12.012 171.418-12.012L171.418-12.012L168.194-12.012L168.194-4.446Q168.194-3.068 168.649-2.288Q169.104-1.508 170.274-1.508L170.274-1.508L171.678-1.508Q171.938-1.508 172.094-1.352Q172.250-1.196 172.250-0.936L172.250-0.936L172.250-0.572Q172.250-0.312 172.094-0.156Q171.938 0 171.678 0L171.678 0ZM175.968 0L175.526 0Q175.266 0 175.110-0.156Q174.954-0.312 174.954-0.572L174.954-0.572L174.954-17.888Q174.954-18.148 175.110-18.304Q175.266-18.460 175.526-18.460L175.526-18.460L175.968-18.460Q176.228-18.460 176.384-18.304Q176.540-18.148 176.540-17.888L176.540-17.888L176.540-11.726Q177.242-12.636 178.243-13.208Q179.244-13.780 180.908-13.780L180.908-13.780Q182.676-13.780 183.859-13.013Q185.042-12.246 185.627-10.933Q186.212-9.620 186.212-7.956L186.212-7.956L186.212-0.572Q186.212-0.312 186.056-0.156Q185.900 0 185.640 0L185.640 0L185.198 0Q184.938 0 184.782-0.156Q184.626-0.312 184.626-0.572L184.626-0.572L184.626-7.826Q184.626-9.906 183.612-11.089Q182.598-12.272 180.648-12.272L180.648-12.272Q178.802-12.272 177.671-11.089Q176.540-9.906 176.540-7.826L176.540-7.826L176.540-0.572Q176.540-0.312 176.384-0.156Q176.228 0 175.968 0L175.968 0ZM195.312 0.260L195.312 0.260Q192.790 0.260 191.308-1.391Q189.826-3.042 189.618-5.720L189.618-5.720Q189.592-6.110 189.592-6.760Q189.592-7.410 189.618-7.800L189.618-7.800Q189.748-9.568 190.450-10.920Q191.152-12.272 192.387-13.026Q193.622-13.780 195.312-13.780L195.312-13.780Q197.132-13.780 198.406-12.974Q199.680-12.168 200.369-10.660Q201.058-9.152 201.058-7.072L201.058-7.072L201.058-6.682Q201.058-6.422 200.889-6.266Q200.720-6.110 200.460-6.110L200.460-6.110L191.204-6.110Q191.204-6.110 191.204-6.006Q191.204-5.902 191.204-5.850L191.204-5.850Q191.256-4.680 191.750-3.627Q192.244-2.574 193.154-1.911Q194.064-1.248 195.312-1.248L195.312-1.248Q196.430-1.248 197.171-1.586Q197.912-1.924 198.354-2.327Q198.796-2.730 198.926-2.938L198.926-2.938Q199.160-3.276 199.290-3.341Q199.420-3.406 199.706-3.406L199.706-3.406L200.122-3.406Q200.356-3.406 200.525-3.263Q200.694-3.120 200.668-2.886L200.668-2.886Q200.642-2.522 200.265-1.989Q199.888-1.456 199.199-0.936Q198.510-0.416 197.522-0.078Q196.534 0.260 195.312 0.260ZM191.204-7.670L191.204-7.566L199.472-7.566L199.472-7.670Q199.472-8.970 198.978-10.010Q198.484-11.050 197.548-11.661Q196.612-12.272 195.312-12.272L195.312-12.272Q194.012-12.272 193.089-11.661Q192.166-11.050 191.685-10.010Q191.204-8.970 191.204-7.670L191.204-7.670ZM214.838 0.260L214.838 0.260Q213.590 0.260 212.537-0.260Q211.484-0.780 210.834-1.651Q210.184-2.522 210.184-3.614L210.184-3.614Q210.184-5.382 211.614-6.448Q213.044-7.514 215.332-7.826L215.332-7.826L219.440-8.398L219.440-9.308Q219.440-10.686 218.595-11.479Q217.750-12.272 215.904-12.272L215.904-12.272Q214.552-12.272 213.720-11.739Q212.888-11.206 212.576-10.348L212.576-10.348Q212.446-9.958 212.082-9.958L212.082-9.958L211.666-9.958Q211.354-9.958 211.224-10.127Q211.094-10.296 211.094-10.530L211.094-10.530Q211.094-10.894 211.367-11.440Q211.640-11.986 212.212-12.519Q212.784-13.052 213.694-13.416Q214.604-13.780 215.904-13.780L215.904-13.780Q217.438-13.780 218.439-13.364Q219.440-12.948 219.999-12.285Q220.558-11.622 220.792-10.816Q221.026-10.010 221.026-9.230L221.026-9.230L221.026-0.572Q221.026-0.312 220.870-0.156Q220.714 0 220.454 0L220.454 0L220.012 0Q219.752 0 219.596-0.156Q219.440-0.312 219.440-0.572L219.440-0.572L219.440-1.794Q219.128-1.326 218.556-0.858Q217.984-0.390 217.087-0.065Q216.190 0.260 214.838 0.260ZM215.098-1.248L215.098-1.248Q216.294-1.248 217.282-1.768Q218.270-2.288 218.855-3.367Q219.440-4.446 219.440-6.084L219.440-6.084L219.440-6.968L216.086-6.500Q213.954-6.214 212.862-5.512Q211.770-4.810 211.770-3.744L211.770-3.744Q211.770-2.886 212.264-2.340Q212.758-1.794 213.525-1.521Q214.292-1.248 215.098-1.248ZM226.174 0L225.732 0Q225.472 0 225.316-0.156Q225.160-0.312 225.160-0.572L225.160-0.572L225.160-17.888Q225.160-18.148 225.316-18.304Q225.472-18.460 225.732-18.460L225.732-18.460L226.174-18.460Q226.434-18.460 226.590-18.304Q226.746-18.148 226.746-17.888L226.746-17.888L226.746-0.572Q226.746-0.312 226.590-0.156Q226.434 0 226.174 0L226.174 0ZM234.624 0.260L234.624 0.260Q233.376 0.260 232.323-0.260Q231.270-0.780 230.620-1.651Q229.970-2.522 229.970-3.614L229.970-3.614Q229.970-5.382 231.400-6.448Q232.830-7.514 235.118-7.826L235.118-7.826L239.226-8.398L239.226-9.308Q239.226-10.686 238.381-11.479Q237.536-12.272 235.690-12.272L235.690-12.272Q234.338-12.272 233.506-11.739Q232.674-11.206 232.362-10.348L232.362-10.348Q232.232-9.958 231.868-9.958L231.868-9.958L231.452-9.958Q231.140-9.958 231.010-10.127Q230.880-10.296 230.880-10.530L230.880-10.530Q230.880-10.894 231.153-11.440Q231.426-11.986 231.998-12.519Q232.570-13.052 233.480-13.416Q234.390-13.780 235.690-13.780L235.690-13.780Q237.224-13.780 238.225-13.364Q239.226-12.948 239.785-12.285Q240.344-11.622 240.578-10.816Q240.812-10.010 240.812-9.230L240.812-9.230L240.812-0.572Q240.812-0.312 240.656-0.156Q240.500 0 240.240 0L240.240 0L239.798 0Q239.538 0 239.382-0.156Q239.226-0.312 239.226-0.572L239.226-0.572L239.226-1.794Q238.914-1.326 238.342-0.858Q237.770-0.390 236.873-0.065Q235.976 0.260 234.624 0.260ZM234.884-1.248L234.884-1.248Q236.080-1.248 237.068-1.768Q238.056-2.288 238.641-3.367Q239.226-4.446 239.226-6.084L239.226-6.084L239.226-6.968L235.872-6.500Q233.740-6.214 232.648-5.512Q231.556-4.810 231.556-3.744L231.556-3.744Q231.556-2.886 232.050-2.340Q232.544-1.794 233.311-1.521Q234.078-1.248 234.884-1.248ZM245.908 0L245.492 0Q245.232 0 245.076-0.156Q244.920-0.312 244.920-0.572L244.920-0.572L244.920-12.922Q244.920-13.182 245.076-13.351Q245.232-13.520 245.492-13.520L245.492-13.520L245.908-13.520Q246.168-13.520 246.337-13.351Q246.506-13.182 246.506-12.922L246.506-12.922L246.506-11.726Q246.974-12.636 247.858-13.078Q248.742-13.520 250.042-13.520L250.042-13.520L251.004-13.520Q251.264-13.520 251.420-13.364Q251.576-13.208 251.576-12.948L251.576-12.948L251.576-12.584Q251.576-12.324 251.420-12.168Q251.264-12.012 251.004-12.012L251.004-12.012L249.886-12.012Q248.326-12.012 247.416-11.102Q246.506-10.192 246.506-8.632L246.506-8.632L246.506-0.572Q246.506-0.312 246.337-0.156Q246.168 0 245.908 0L245.908 0ZM254.982 0L254.540 0Q254.280 0 254.124-0.156Q253.968-0.312 253.968-0.572L253.968-0.572L253.968-12.948Q253.968-13.208 254.124-13.364Q254.280-13.520 254.540-13.520L254.540-13.520L254.982-13.520Q255.242-13.520 255.398-13.364Q255.554-13.208 255.554-12.948L255.554-12.948L255.554-12.038Q256.204-12.870 257.101-13.325Q257.998-13.780 259.272-13.780L259.272-13.780Q262.184-13.780 263.432-11.336L263.432-11.336Q264.030-12.454 265.187-13.117Q266.344-13.780 267.852-13.780L267.852-13.780Q269.230-13.780 270.335-13.143Q271.440-12.506 272.077-11.258Q272.714-10.010 272.714-8.138L272.714-8.138L272.714-0.572Q272.714-0.312 272.558-0.156Q272.402 0 272.142 0L272.142 0L271.700 0Q271.440 0 271.284-0.156Q271.128-0.312 271.128-0.572L271.128-0.572L271.128-7.878Q271.128-9.594 270.634-10.543Q270.140-11.492 269.334-11.882Q268.528-12.272 267.592-12.272L267.592-12.272Q266.812-12.272 266.006-11.882Q265.200-11.492 264.667-10.543Q264.134-9.594 264.134-7.878L264.134-7.878L264.134-0.572Q264.134-0.312 263.978-0.156Q263.822 0 263.562 0L263.562 0L263.120 0Q262.860 0 262.704-0.156Q262.548-0.312 262.548-0.572L262.548-0.572L262.548-7.878Q262.548-9.594 262.028-10.543Q261.508-11.492 260.702-11.882Q259.896-12.272 259.012-12.272L259.012-12.272Q258.232-12.272 257.426-11.882Q256.620-11.492 256.087-10.543Q255.554-9.594 255.554-7.904L255.554-7.904L255.554-0.572Q255.554-0.312 255.398-0.156Q255.242 0 254.982 0L254.982 0ZM278.408 0L277.160 0Q276.900 0 276.744-0.156Q276.588-0.312 276.588-0.572L276.588-0.572L276.588-1.820Q276.588-2.080 276.744-2.249Q276.900-2.418 277.160-2.418L277.160-2.418L278.408-2.418Q278.668-2.418 278.837-2.249Q279.006-2.080 279.006-1.820L279.006-1.820L279.006-0.572Q279.006-0.312 278.837-0.156Q278.668 0 278.408 0L278.408 0Z"></path>
  </g>
</svg>